<svg xmlns="http://www.w3.org/2000/svg" viewBox="0 0 512 512">
  <defs>
    <radialGradient id="bg" cx="50%" cy="38%" r="75%">
      <stop offset="0" stop-color="#1b3352"/>
      <stop offset="1" stop-color="#05070b"/>
    </radialGradient>
    <linearGradient id="body" x1="0" x2="1">
      <stop offset="0" stop-color="#9a9a96"/>
      <stop offset="0.45" stop-color="#f6f6f2"/>
      <stop offset="1" stop-color="#8d8d8a"/>
    </linearGradient>
    <linearGradient id="flame" x1="0" y1="0" x2="0" y2="1">
      <stop offset="0" stop-color="#fff2c4"/>
      <stop offset="0.35" stop-color="#ffb04a"/>
      <stop offset="1" stop-color="#e8640e" stop-opacity="0"/>
    </linearGradient>
  </defs>
  <rect width="512" height="512" fill="url(#bg)"/>
  <circle cx="380" cy="132" r="54" fill="#e9e4d6"/>
  <circle cx="362" cy="118" r="10" fill="#c9c2b2"/>
  <circle cx="398" cy="150" r="14" fill="#c9c2b2"/>
  <circle cx="392" cy="108" r="6" fill="#c9c2b2"/>
  <g fill="#fff" opacity="0.8">
    <circle cx="96" cy="96" r="3"/><circle cx="150" cy="170" r="2"/><circle cx="440" cy="260" r="2.5"/>
    <circle cx="70" cy="300" r="2"/><circle cx="460" cy="400" r="2"/><circle cx="210" cy="60" r="2"/>
  </g>
  <g transform="translate(256 262) rotate(18)">
    <path d="M-34 96 L-34 -48 C-34 -100 -14 -138 0 -158 C14 -138 34 -100 34 -48 L34 96 Z" fill="url(#body)"/>
    <path d="M-34 -34 L34 -34 L34 -22 L-34 -22 Z" fill="#26282c"/>
    <path d="M-34 52 L34 52 L34 62 L-34 62 Z" fill="#e8b21a"/>
    <circle cx="0" cy="-70" r="13" fill="#4cc3ff" stroke="#26282c" stroke-width="5"/>
    <path d="M-34 40 L-74 108 L-74 128 L-34 104 Z" fill="#ff7a1a"/>
    <path d="M34 40 L74 108 L74 128 L34 104 Z" fill="#ff7a1a"/>
    <path d="M-22 96 L22 96 L30 122 L-30 122 Z" fill="#3a3c40"/>
    <path d="M-30 122 C-34 170 -16 230 0 262 C16 230 34 170 30 122 Z" fill="url(#flame)"/>
  </g>
</svg>
